<svg width="1290" height="2796" viewBox="0 0 1290 2796" xmlns="http://www.w3.org/2000/svg">
  <defs>
    <linearGradient id="bg" x1="0" y1="0" x2="0" y2="1">
      <stop offset="0%" stop-color="#0B0F18"/>
      <stop offset="100%" stop-color="#121927"/>
    </linearGradient>
  </defs>
  <rect width="1290" height="2796" fill="url(#bg)"/>
  <rect x="90" y="120" width="1110" height="2550" rx="44" fill="#111827" stroke="#2B3346"/>
  <text x="150" y="220" fill="#D5A6FF" font-size="34" font-family="-apple-system,system-ui">Mockup C · Coach limpio</text>
  <text x="150" y="290" fill="#E5E7EB" font-size="52" font-family="-apple-system,system-ui">Spiral Journey</text>
  <circle cx="645" cy="870" r="330" fill="none" stroke="#D5A6FF" stroke-width="4"/>
  <circle cx="645" cy="870" r="250" fill="none" stroke="#3B455E" stroke-width="2"/>
  <line x1="645" y1="540" x2="645" y2="1200" stroke="#3B455E"/>
  <rect x="150" y="1320" width="990" height="170" rx="24" fill="#1F2937" stroke="#374151"/>
  <text x="190" y="1416" fill="#E5E7EB" font-size="38" font-family="-apple-system,system-ui">Insight diario</text>
  <rect x="880" y="1368" width="220" height="78" rx="18" fill="#D5A6FF" fill-opacity="0.15" stroke="#D5A6FF"/>
  <rect x="150" y="1540" width="990" height="170" rx="24" fill="#1F2937" stroke="#374151"/>
  <text x="190" y="1636" fill="#E5E7EB" font-size="38" font-family="-apple-system,system-ui">Micro-hábito</text>
  <rect x="880" y="1588" width="220" height="78" rx="18" fill="#D5A6FF" fill-opacity="0.15" stroke="#D5A6FF"/>
  <rect x="150" y="1760" width="990" height="170" rx="24" fill="#1F2937" stroke="#374151"/>
  <text x="190" y="1856" fill="#E5E7EB" font-size="38" font-family="-apple-system,system-ui">Acción sugerida</text>
  <rect x="880" y="1808" width="220" height="78" rx="18" fill="#D5A6FF" fill-opacity="0.15" stroke="#D5A6FF"/>
  <rect x="220" y="2460" width="850" height="130" rx="32" fill="#0F172A" stroke="#334155"/>
  <text x="280" y="2538" fill="#9CA3AF" font-size="30">Spiral</text><text x="470" y="2538" fill="#9CA3AF" font-size="30">Análisis</text><text x="700" y="2538" fill="#D5A6FF" font-size="30">Coach</text><text x="890" y="2538" fill="#9CA3AF" font-size="30">Ajustes</text>
</svg>